<?xml version="1.0" standalone="no"?>
<!DOCTYPE svg PUBLIC "-//W3C//DTD SVG 20010904//EN"
 "http://www.w3.org/TR/2001/REC-SVG-20010904/DTD/svg10.dtd">
<svg version="1.0" xmlns="http://www.w3.org/2000/svg"
 width="600.000000pt" height="600.000000pt" viewBox="0 0 600.000000 600.000000"
 preserveAspectRatio="xMidYMid meet">
<metadata>
Created by potrace 1.11, written by Peter Selinger 2001-2013
</metadata>
<g transform="translate(0.000000,600.000000) scale(0.100000,-0.100000)"
fill="#000000" stroke="none">
<path d="M3866 5083 c-1 -1 -328 -5 -726 -8 -399 -4 -885 -8 -1080 -10 -195
-2 -463 -4 -595 -5 -132 -1 -254 -3 -270 -6 l-30 -5 0 -2031 0 -2032 27 -7
c15 -4 424 -5 910 -3 486 2 1287 6 1780 8 493 2 901 7 906 10 6 3 11 92 12
213 0 115 3 402 5 638 10 1071 15 1590 21 2265 3 399 7 775 8 835 2 61 -1 118
-6 128 -8 16 -38 17 -484 15 -262 -2 -477 -4 -478 -5z m-2539 -4029 c-3 -3
-12 -4 -19 -1 -8 3 -5 6 6 6 11 1 17 -2 13 -5z m150 0 c-3 -3 -12 -4 -19 -1
-8 3 -5 6 6 6 11 1 17 -2 13 -5z"/>
</g>
</svg>
